# xmcd
#
# Track frame offsets: 
#        150
#        24578
#        49039
#        76226
#        92958
#        106632
#        131866
#        152022
#        168204
#        184686
#        196218
#        215317
#        227557
#        255718
#        274559
#        289771
#        305441
#
# Disc length: 4345 seconds
#
# Revision: 0
# Processed by: cddbd v1.4PL0 Copyright (c) Steve Scherf et al.
# Submitted via: ExactAudioCopy v0.95a3
#
DISCID=dc10f711
DTITLE=Various Artist - Good Whiskey Blues Vol. 6
DYEAR=1900
DGENRE=Blues
TTITLE0=T.C.Carr And The Catch - Woman's Lookin' For A Man
TTITLE1=Backtrack Blues Band - Boogie Snack
TTITLE2=Smokehouse - Cadillac In The Swamp
TTITLE3=Midnight Creepers - Luberta
TTITLE4=Smokehouse - Peepin' Through The Knothole
TTITLE5=Pat Ramsey - King Of Fools
TTITLE6=Dr. Hector and The Groove Injectors - Pickin' The Blues
TTITLE7=Pat Ramsey - Allergic To Work
TTITLE8=Bill Wharton and The Ingredients - Swamp Boogie
TTITLE9=Dr. Hector and The Groove Injectors - Ricky Business
TTITLE10=Steve Bassett - Poor Ol' Me
TTITLE11=Chip Vandiver - Head On Collision
TTITLE12=Son Phillips And The Hounds - April Fool
TTITLE13=Richard Waters With Larry Burton - Please Set Set A Date
TTITLE14=Chick French - Lowdown and Dirty
TTITLE15=Big Dawgs - One More Train
TTITLE16=Steve Bassett - Jesus Just Left Chicago
EXTD=
EXTT0=
EXTT1=
EXTT2=
EXTT3=
EXTT4=
EXTT5=
EXTT6=
EXTT7=
EXTT8=
EXTT9=
EXTT10=
EXTT11=
EXTT12=
EXTT13=
EXTT14=
EXTT15=
EXTT16=
PLAYORDER=
